<svg width="32" height="32" viewBox="0 0 32 32" fill="none" xmlns="http://www.w3.org/2000/svg">
<path d="M1.16785 31.7302C1.30563 31.5867 1.46063 31.4661 1.56971 31.3054C5.06014 26.3568 8.53909 21.4024 12.041 16.4595C12.3223 16.0577 12.2649 15.8108 12.0123 15.4492C8.5965 10.5981 5.18644 5.72991 1.78212 0.867418C1.61564 0.626303 1.45489 0.385188 1.22526 0.0579598C1.55823 0.0407373 1.77638 0.0177739 2.00027 0.0177739C3.99809 0.0177739 5.99016 0.0292556 7.98797 0.00629223C8.45298 0.00629223 8.73428 0.149813 8.99836 0.528709C11.243 3.75506 13.5049 6.96993 15.7611 10.1848C15.8759 10.3455 16.0022 10.5006 16.1629 10.713C16.3294 10.5006 16.4672 10.3283 16.5935 10.1504C18.798 6.98141 21.0082 3.81247 23.1897 0.626303C23.5112 0.155554 23.8557 -0.0109303 24.424 0.000551397C26.5309 0.0349964 28.6378 0.0120331 30.8365 0.0120331C30.7389 0.212963 30.693 0.350743 30.6126 0.46556C23.3734 10.822 16.1342 21.1785 8.8778 31.5235C8.7228 31.7474 8.32094 31.9082 8.0339 31.9139C5.99016 31.9483 3.95216 31.9311 1.90842 31.9369C1.66156 31.9369 1.40897 31.977 1.16211 32C1.16211 31.9081 1.16211 31.8163 1.16211 31.7244L1.16785 31.7302Z" fill="black"/>
</svg>
