<?xml version="1.0" encoding="UTF-8"?>
<svg id="Layer_2" data-name="Layer 2" xmlns="http://www.w3.org/2000/svg" viewBox="0 0 960 960">
  <defs>
    <style>
      .cls-1 {
        fill: #fff;
      }
    </style>
  </defs>
  <g id="Layer_1-2" data-name="Layer 1">
    <g>
      <path class="cls-1" d="M304.32,442.8c-.09.38-1.51,2.08-1.79,3.01-.86,2.8-2.51,6.04-2.99,8.53-.25,1.32.27,2.92-.12,4.2-.25.82-1.29,1.17-1.58,1.78-.52,1.12-.62,22.71-.24,24.7.25,1.31,1.53,1.57,1.81,2.51.41,1.36-.11,3.19.12,4.68.35,2.24,2.35,4.25,2.75,5.41,1.73,5.08,2.84,13.25,2,18.59-.07.43-1.96,5.72-2.16,6-.83,1.21-3.82.51-2.4,2.45.69.94,14.35.4,16.6.22l.47-1.69c-2.08.19-4.97-1.03-6.17-2.71-.62-.87-2.6-5.46-.32-4.97.93,2.26,5.89,4.88,6.72,6.26.34.57.03,1.57.53,1.95,1.12.85,4.61.19,6.17.46,1.13.19,2.84,1.42,4,1.76,5.43,1.59,10.95,1.81,16.32.26,3.39-.98,8.97-2.51,12.33-2.02.75.11,1.33.81,2.4.96,1.28.18,8.31.46,7.94-1.22-1.71-1.85-3.79-2.66-2.39-5.53,1.1-.28.79.21,1.09.6,1.44,1.86,2.23,3.89,5.07,4.26.14,1.06.47,3.32-.71,3.7-2.57-.6-4.66.78-6.63,1.05s-9.12.28-11.09,0c-1.28-.18-1.95-1.13-3.33-1.04s-3.95,1.7-5.31,1.95c-7.08,1.29-15.38,1.52-22.41-.1-1.21-.28-2.3-1.59-3.94-1.81-2.73-.36-3.37.73-5.28,1-6.42.9-14.89-.74-21.55,0l-.6-3.42c3.1-.44,6.04-1.82,6.87-5.13,1.5-6.01,2.05-12.37-1.66-17.76l-1.09-5.39c-1.95-1.95-3.16,6.27-3.51,7.29-1.15,3.29-3.89,8.41-6.08,11.2-.94,1.19-5.38,5.76-6.48,6.48-.62.4-1.06.51-1.2-.25-.23-1.24,4.68-5.81,5.54-6.93,3.6-4.66,8.08-13.97,9.62-19.68.43-1.58.49-5.22,1.41-7.22.25-.56,1.17-.9,1.43-1.45.53-1.14.59-23.63.15-25.1-.27-.89-1.49-1.24-1.74-2.12-.35-1.19.33-2.26.15-3.08-.19-.89-1.41-1.47-1.61-2.21-.22-.83.36-1.67.22-2.56-.46-2.85-3.37-6.39-4.01-8.48-1.84-6.07-4.03-8.4-7.57-13.55-.33-.47-3.67-3.01-1.89-3.38,1.15-.24,2.17,1.17,2.88,1.92,6.26,6.62,7.84,12.43,10.91,20.29.62,1.6,1.14,4.59,2.63,1.42,3.71-7.88,3.44-15.24,3.02-23.89-.08-1.72-.69-3.06-.87-4.39-.08-.62-.02-1.44.63-1.58,1.68-.35,3.71,5.88,5.28,6.71,1.09.2.66-.47.71-1.19.1-1.42-.74-6.2,1.45-5.29l4.56,6.98c1.24-.18,2.44-2.19,3.27-2.73.55-.36,2.77-1.61,3.52-2.01,13.89-7.46,29.39-3.13,44.11-3.41,1.35-.02,2.44-1.45,3.83-1.42,1.1.02,1.92,1.24,3.8,1.42,7.38.71,19.3.32,26.93-.01,6.45-.28,13.53-1.9,20.17-1,3.84.52,7.43,3.86,11.95.96l42.68.09c1.29.44,1.51,4.38.03,5.2-2.71-.23-1.58-2.38-2.83-3.71-4.23.59-8.69.45-13,.38-7.25-.1-17.94-1.01-24.96-.04-3.63.5-4.13,1.97-8.96.85-3.47-.81-5.07-3.62-9.01-2.26.49,2.42,2.4,1.49,3.97,2.03.5.17,5.55,3.04,6.13,3.47,2.29,1.7,9.17,11.08,9.87,13.69.06.21.11,4.07.08,4.45-.18,1.78-1.35,2.69-1.6,3.7-.34,1.34-.79,2.95-1.09,4.22-.22.94.45,1.76.35,2.25-.13.69-1.54.63-2.09,1.25-.33.37-.77,2.38-1.46,2.38h-27.12l.21-1.47,22.29-.51c.26-1.96,1.52-4.17,1.95-5.97.24-1,.83-3.46.96-4.32.84-5.41-5.51-14.89-9.82-17.97-2.82-2.01-9.45-4-12.83-3.23-3.02.68-9.08,8.47-9.73,8.5-1.79.07.36-2.24.45-2.43,1.2-2.5,3.5-4.79,5.79-6.69.56-.46,1.39-.45,1.93-.95.45-.56-.52-.9-.97-.97-4.97-.77-13.3.1-18.74.02-3.05-.05-6.3-.52-9.6-.52-3.06,0-2.83.12-5.83-.37-.49-.08-1.27.81-2.28.9-3.06.28-5.91-.56-8.67-.55-2.08,0-3.93.98-6.13.41-.92-.24-1.99-1.57-3.1-1.71-1.26-.15-10.2-.04-11.43.13-.74.1-1.46,1.2-2.17,1.44-3.15,1.05-7.84,2.41-10.73,4.15-1.06.64-2.8,3.52-3.66,4.02-.77.45-1.73.08-2.51.37s-1.44,1.16-2.12,1.23c-.38.04-3.48-1.54-3.76-1.84-.78-.82-.58-3.08-1.46-3.34-.48-.25-1.67.32-1.67.71v17.76ZM404.64,418.56c-1.66-.04-3.27-.38-4.31,1.2,1.03,1.31,2.73.68,4.03.28l.28-1.48Z"/>
      <path class="cls-1" d="M179.76,526.08c.09.03,1.18,1.12,1.18,1.2l-1.68,2.67c-1.65.51-1.69-.91-1.99-.98-6.05-1.41-22.89.06-30.17.01-1.21,0-2.01-.96-2.86-.96s-1.53.89-2.4.9c-2.69.05-2.24-3-2.17-4.77,5.1.73,11.84-2.64,12.85-8.03,3.83-20.47-.62-46.33,1.05-67.54-1.11-3.31-1.93-6.6-3-9.96s-3.88-12.66-7.06-14.06c-1.1-.49-3.07.1-3.62-.69-.37-.52-.36-2.9-.13-3.55.67-1.95,3.52-.57,4.93-.8,1.07-.18,1.75-1.33,2.95-1.44,16.69-1.52,34.2,2.8,50.88,1,1.53-.17,2.24-.86,3.77-1.03,1.92-.21,17.32-.27,18.06.24l.24,4.62c-2.82.45-4.68,1.81-5.08,4.77-5.46-1.84,1.83-4.7,1.83-6l-1.66-2.12c-3.93,1.09-8.49-.11-12.38.45-1.62.23-5.25,2.36-6.26,2.42-1.79.12-2.98-1.28-4.79-1.5-5.33-.66-13.33.98-18.24,0-2.34-.46-.8-.98-4.79-.93-4.48.05-9,.07-13.48,0-2.58-.04-5.05-1.59-6.91,1.24.27,2.02,2.53,1.77,3.56,2.6.79.63,1.91,4.05,2.34,5.11,2.03,5.01,5.48,12.29,6.11,18.12,2.16,19.81-1.67,43.62-.06,63.85-1.49,1.96-.6,4.01-1.07,6.13-.82,3.74-6.32,6.85-9.92,7.12l-.03,1.89h30Z"/>
      <path class="cls-1" d="M214.56,468c-.84-.21-.96.35-1.44.72-1.95,1.49-3.22,3.53-5.51,5.05s-5.2,2.74-7.72,3.8c-.47,4.84-2.58,9.22-3.93,13.83-3.06,10.45-5.71,21.29-9.08,31.72-1.01,3.11-.85,9.01-4.93,3.72,2.21-1.97,4.05-4.41,4.65-7.37.29-1.45-.12-2.94.15-4.1.62-2.65,2.39-6.82,3.57-9.47,1.23-2.76.73-5.01,1.23-7.33.06-.3,2.56-4.56,2.69-5.09.29-1.21-.31-2.1-.09-2.94.2-.76,1.21-1.51,1.5-2.36.86-2.55,1.08-8.18,2.27-9.97.31-.47,1.63-.69,2.13-1.24s.79-1.97,1.73-2.56c4.6-2.89,8.45-3.7,11.96-8.94.87-1.3,1.61-4.14,2.04-4.68.48-.62,1.54-.36,2.15-.73.91-.56,2.25-8.66,2.23-10.15-.02-1.21-.52-2.27-.66-3.41-.09-.76.44-1.57.3-2.19-.22-.93-1.54-1.04-1.89-1.61-.69-1.14-1.42-5.05-2.66-7.3-.75-1.36-3.41-2.81-.18-4.14,2.78,3.23,3.56,6.96,5.03,10.8.45-.01,3.54-6.83,4.17-7.82.53-.84,2.21-3.21,2.79-3.93.86-1.05,5.63-5.27,5.73-5.82l-1.94-2.34c.37-4.1,2.28-2.6,4.58-2.67,1.36-.04,2.3-1.18,3.42-1.39,2.2-.4,7.5-.73,10.09-.95,7.88-.67,11.69-.1,19.14.95,1.88.26,10.54-.59,11.24.52l.06,3.77c-2.31.9-4.02-2.56-5.13-2.81-1.52-.35-5.84.74-7.58.41-1.13-.22-1.32-1.31-2.88-1.48-.65-.07-10.94-.06-11.51.02-1.01.14-1.34,1.24-2.43,1.45-4.73.93-9.05-2.65-11.14,3.74-.3.93.06,1.98-.38,2.98s-3.53,2.75-4.27,3.89c-2.99,4.58-5.73,9.92-8.18,14.86-.38.76-.12,1.89-.48,2.41s-1.46.31-1.64.51c-.29.32.1,1.83-.08,2.56-2.44,9.75-.95,15.66-1.11,25.39-.03,2.12-1.14,5.29-.69,7.64.24,1.24,1.47,1.77,1.71,2.61.47,1.6-.15,3.89.13,5.63.43,2.7,2.99,9.14,4.05,11.79,1.72,4.29,4.74,8.59,7.23,12.45.47.73,2.53,1.58,3.12,2.64.54.97.32,1.93.71,2.65.56,1.03,1.94,1.79,2.13,3.15.93.64,4.91,0,6.47.25s3.79,1.51,5.08,2.13c2.91,1.38,12.82-1.64,16.08-2.13,1.81-.27,3.98.28,5.71-.05s2.85-2.61,5.06-1.9l-.21,3.39c-.6.87-3.58.29-4.8.47-7.76,1.2-19.68,3.93-27.41,2.88-1.61-.22-4.12-1.69-5.76-1.92-4.26-.58-14.1,2.2-8.39-5.02-2.38-1.86-4.46-3.97-6.2-6.42-6.1-8.62-9.5-18.71-11.16-29.05-.1-.63-.86-1.4-.86-1.54v-18Z"/>
      <path class="cls-1" d="M811.2,424.32c-1.17-.97,6.03-3.01,4.8-4.79l-34.58.22c-.32,1.16-1.34,2.08-1.79,3.01-1.66,3.42-1.46,7.45-2.62,10.82-.25.72-1.12,1.08-1.26,1.64-.22.84.69,1.93.34,3.16-.22.77-1.26,1.14-1.59,1.8-1.13,2.3-1.58,5.98-2.38,8.66-.68,2.28-.83,5.95-1.31,7.35-.22.66-1.29.62-1.4,1.11-.19.84.49,1.94.25,2.58-.18.49-1.33.92-1.57,1.75-.41,1.4-.08,4.8-1.15,6.28-.28.39-1.28.24-1.7.71-.25.28-.21,1.11-.59,1.55-2.29,2.63-4.21,2.18-6.51,3.59-.35.21-5.74,5.32-5.96,5.67-.56.9-1.17,3.01-1.46,3.23-.67.51-2,.08-2.91,1.06-.4.43-1.57,3.6-1.76,4.34-.71,2.74-1.48,8.61-1.11,11.41.12.92,2.74,7.95,3.3,9.18.6,1.33,2.81,3.95,2.96,4.72.23,1.22.16,5.8-.2,6.98-.54,1.75-3.62,3.36-3.66,3.61-.14.86.53,1.79,1.33,2.02,1.34.39,12.05.35,13.84.12,1.5-.19,2.17-1.37,3.36-1.45,7.56-.5,20.32.4,27.79,1.45,4.02.56,17.5.48,21.65,0,.51-.06,1.11,0,1.45-.48l-.28-2.42c3.19-1.52,4.44,3.48,2.3,4.69-.9.51-2.61-.29-3.77-.17-1.4.15-2.34,1.09-4.02,1.26-6.78.71-15.2-.34-22.09-.53-11.14-.3-20.76-.71-32.15.53-2.41.26-7.13-.1-9.71-.2-2.75-.11-5.59-.38-8.36-.53l-.45-4.11c4.73,1.18,4.4-3.69,6.63-6.57.13-.91-2.86-4.7-3.46-5.95-.57-1.18-.9-3.27-1.54-4.7-.34-.76-1.48-1.82-1.55-2.3s.7-1.13.86-1.86c.68-3.11,2.02-5.54,2.77-8.74,1.04-4.43,1.33-9.03,2.26-13.58.36-1.15,5.51-5.79,6.76-6.68,1.76-1.27,7.13-3.17,7.82-4.18.2-.3,2.18-5.11,2.39-5.77.25-.78-.03-1.82.22-2.66,3.82-13.16,7.32-26.78,11.67-39.69.32-.95.06-1.98.44-2.92l.93-.43c.57.36,1.05.98,1.7,1.19,3.6,1.21,2.38-2.09,4.12-2.23l2.85,1.03,35.58.42c1.45,1.47,1.45,2.93,0,4.39l-7.47,1.4ZM770.88,445.92c1.76,0,1.76-1.43,0-1.44v1.44ZM768.96,453.12h-.95s0,1.91,0,1.91h.71s.72-.72.72-.72l-.47-1.2ZM768,457.92h-.95v1.44h.95v-1.44Z"/>
      <path class="cls-1" d="M539.04,492.96c-.21-1.31.91-2.63,2.17-2.87,7.87.78,17.85-1.08,25.45-.04,2.32.32,4.68,4.5,5.36,6.64.65,2.03.68,5.06,1.1,6.98.08.36.86.29.94.65.29,1.22-.31,2.93.09,4.17.22.68,1.32.6,1.64,1.7s.42,3.48.11,4.51c-.06.21-2.21,3.32-2.52,3.72-1.08,1.36-7.49,7.29-8.75,7.59-.91.22-4.54-1.47-4.47,1.02.87-.17,3.61.97,4.01.9.8-.14,1.56-2.2,2.92-1.87,10.02.79,21.41-.97,31.26,0,1.67.16,2.79,1.32,3.33,1.32.6,0,1.52-1.14,2.86-1.31,2.01-.26,12.16-.29,13.83.14.92.24,1.77,1.47,2.98,1.58,1.92.17,4.75-.67,6.72-.75s4.63.62,5.78.51c.62-.06,6.3-2.55,7.49-3.09,1.28-.58,2.44.14,3.1-1.75l.93.03.73,1.43c-1.87-.47-2.3,1.01-3.41,1.63-8.83,4.95-21.65,4.8-31.41,3.2-4.36-.72-10.36-.08-14.5.8-1.93.41-5.52-.78-8.49-.8-6.8-.06-13.83-.47-20.58-.32-7.77.17-15.48,2.13-23.63,1.29-2.7-.28-4.7-2.45-8.14-2.35-1.44.04-2.35,1.18-3.8,1.38-3.13.42-8.08-.04-11.52,0-9.25.11-19.8-1.2-28.24-.88-.56.02-1.02.77-1.81.64-2.37-.38-3.27-3.28-1.41-4.34,2.12-1.21,4.25,1.24,3.39-4.82-.91-6.44-5.83-17.97-4.23-23.86.19-.7,1.01-1.24,1.23-2.13.54-2.19.79-5.1,1.3-7.34,2.62-.35,1.41,3.39,1.7,5.02.39,2.2,3.02,6.32,3.25,7.8.15.95-.59,2.05-.41,3.24.19,1.26,1.58,1.61,1.85,2.53.34,1.19-.34,2.28-.15,3.08.43,1.88,1.98,6.19,2.19,7.82.36,2.72.48,7.1-1.93,8.73-.14.49,1.04,1.62,1.17,1.62h40.32c.27,0,1.44-1.8,1.91-1.8.23,0,.83.76,1.47.82,1.55.16,3.11-.19,4.65.15,2.73.6,4.03,4.47,7.56,1.55l-1.24-1.65-1.88.91c-1.05-2.44-3.88-2.11-5.77-3.32-.76-.49-3.38-3.26-4.07-4.09-.45-.54-1.17-.77-.96-1.68.97-.21,1.28.21,1.94.7,1.13.83,4.79,5.18,5.58,5.45.99.34,1.84-.4,2.41,1.04,2.64-.37,4.47,1.38,7.14,1.01.82-.11.56-.72,1.08-.96,1.52-.69,4.22-2.17,5.62-3.39,2.37-2.07,4.48-5.16,4.08-8.43-.67-5.55-3.26-10.8-5.04-16.01-.11-.32.17-3.42-1.46-3.42h-22.8Z"/>
      <path class="cls-1" d="M374.25,452.99c-1.23,2.68-.24,3.41-.9,5.55-.22.72-1.22,1.04-1.36,2.04-.17,1.25-.06,22.28.19,23.42,1.41,6.26,4.04,20.1,7.75,25.28,5.19,7.23,10,13.59,18.86,16.65,4.76,1.65,4.9,1.41,9.93,1.07,1.21-.08,2.81.55,3.63.31,6.03-1.73,12.36-3.93,16.79-8.8,1.72-1.89,2.72-3.96,4.04-5.91.26-.38,2.73-2.84,3.15-2.37.29,1.03-.36,1.32-.7,1.93-3.13,5.46-11.63,13.69-17.91,15.69-7.77,2.49-19.7,3.2-27.41-.16-23.32-10.16-28.13-45.7-24.98-68.07.25-1.77,2.23-5.82,1.3-7.38-.15-.25-1.05-.38-1.36-.77-1.5-1.9.74-1.91,1.23-2.68.38-.61.43-11.31.21-12.69s-1.22-2.23-1.42-3.86c-.16-1.28-.18-6.47.26-7.44.18-.39,3.06-3.18,3.46-3.29,2.32-.66,6.31,1.57,8.54,2.31.07,2.06,2.64,4.82,3.01,6.11,1.38,4.82-.35,6.22-2.02,9.78-.88,1.88-3.87,8.05-4.12,9.32s.35,2.84-.16,3.94ZM370.4,426.4c-.41-.48-3.15-2.62-3.67-2.08.47,4.52.16,9.45,1.41,13.71.59,1.46-.51,6.31.76,6.92l4.57-9.33c.46-2.73-1.3-7.15-3.06-9.22Z"/>
      <path class="cls-1" d="M232.65,498.37c-1.23-2.68-.24-3.41-.9-5.55-.22-.7-1.13-.99-1.34-2.02-.66-3.35.75-9.29,0-12.38-.14-.57-1.51-.54-1.84-1.62s-.22-6.74.17-7.81c.32-.87,1.41-1.47,1.64-2.68.64-3.43-.52-8.39.05-11.95.35-2.17,1.76-6.34,2.35-8.7,1.16-4.68,4.1-12.36,7.44-16.55.54-.67,4.44-4.54,4.92-4.68,2.74-.81,8.21-.09,9.16,3.12.55,1.83-.27,4.7.11,6.61.23,1.16,1.37,1.34,1.48,2.88.59,8.81-.58,19.36-.56,28.32.03,15.85,1.24,31.3-.95,47.02-.25,1.83.43,4.46-.07,6.17-.16.54-3.06,3.44-3.6,3.6-4.44,1.32-6.9-1.13-9.52-4.2-2.15-2.51-7.77-12.62-8.35-15.65-.24-1.24.31-2.86-.18-3.93ZM246.66,519.29c2.17-3.31-.05-7.23,2.01-10.71-1.85-23.37,2.8-49.22-.96-72.05-.3-1.81.38-9.33-3.15-9.35-.79,0-3.22,3.5-3.78,4.39-4.27,6.76-7.06,16.07-8.41,23.75-.7,3.97.05,8.65-.55,12.41-.21,1.29-1.31,2.28-1.41,3.43-.25,2.86.86,4.26,1.34,6.29.53,2.26-.06,5.9.16,8.48.68,7.93,3.74,19.81,7.91,26.65.84,1.38,5.24,7.62,6.85,6.71Z"/>
      <path class="cls-1" d="M728.09,419.58c.32,5.19-2.23,1.91-4.11,1.48-1.73-.4-4.03.29-5.56-.19-.67-.21-1.06-1.14-1.59-1.24-.61-.11-1.46.58-2.28.34-.59-.17-.66-1.13-1.13-1.44-.87-.58-4.65.51-6.13.56s-2.82-.57-3.83-.5c-.95.07-5.63,2.14-7.24,2.36-2.11.29-4.37-.37-6.46.26-1.51,2.19-1.77,4.99-3.36,7.2-1.19,1.65-3.49,3.14-4.8,4.8-2.13,2.72-7.98,16.04-8.62,19.22-.17.87.18,1.96-.09,2.79-.25.76-1.5.81-1.77,1.59-.41,1.17.11,3.27-.1,4.7-1.26,8.72-1.26,14.89,0,23.57.22,1.48-.29,3.33.12,4.68.26.87,1.48,1.26,1.73,2.11.35,1.22.49,3.15.91,4.85.86,3.48,2.53,6.3,3.77,10.15,1.16,3.58,7.06,8.89,9.05,12.55.67,1.22,1.61,5.31,2.15,6.01,1.09,1.43,7.31.3,9.39.69,1.22.23,1.76,1.43,3.37,1.43,4.93.02,10.11-.81,14.87-1.48,2.24-.32,5.43.57,7.17.37,1.23-.14,1.7-1.36,2.43-1.81,1.83-1.1,2.83-.53,2.08,1.6-.93,2.64-3.86,1.49-5.87,1.81-7.86,1.25-20.37,2.98-28.37,1.92-1.4-.19-3.75-1.41-5.28-1.67-2.07-.36-8.74.63-9.3-1.06-.62-2.27,2.49-2.77,1.81-4.64-.14-.38-4.75-4.63-5.68-5.85-5.62-7.41-10.14-17.97-9.09-27.34,1.32-11.83,1.36-21.36-.04-33.13-.84-7.09,4.87-18.38,8.94-24.21,1.9-2.72,4.59-4.68,6.91-7.01l-2.79-2.49c-.88-3.18,3.51-1.72,5.42-2.08,1-.19,1.58-1.1,2.52-1.32,1.84-.43,5.79-.6,8.18-.94,5.1-.73,11.59-1.8,16.71-1.1,1.66.23,4.56,1.7,6.24,1.92s9.14-.42,9.75.57Z"/>
      <path class="cls-1" d="M266.26,423.46c.87-.27,1.78-.18,2.65.03,5.15,1.24,11.04,12.09,13.06,16.7,1.11,2.55,2.33,7.01,2.7,9.78,1.74,13.01,2.47,43.35-2.7,54.95-1.09,2.45-4.34,9.19-5.76,11.04-4,5.2-10.34,10.46-14.32,1.92l-.3-89.03c-.02-1.23,3.84-5.14,4.68-5.4ZM273.79,440.95c-1.97-4.96-4.55-10.05-8.58-13.62-2.74.69-1.44,4.03-1.73,6.32-.64,5.1-.44,7.47-.42,12.5.08,19.06.05,38.17-.5,57.15-.11,3.65.56,5.17.93,8.18.34,2.82-.87,5.7,1.7,7.86.87.08,3.65-3.85,4.3-4.79,7.4-10.75,9.36-25.86,9.41-38.59.05-12.19-.77-24.06-5.11-35Z"/>
      <path class="cls-1" d="M668.4,419.04c1.75.5,1.24,4.17-.48,4.35-2.14.23-1.13-2.09-2.87-2.44-2.26-.45-14.24-.32-16.82,0-1.54.19-2.54,1.37-3.26,1.35-1.61-.04-5.15-1.87-6.83-2.27-1.01-.24-2.28.22-3.27-.1-.62-.2-.67-1.08-1.13-1.4-.58-.4-6.17.06-7.59.05-.95,0-1.94-.54-2.76-.42s-3.99,2.44-5.88,2.77c-1.34.23-2.82-.19-4.2.12-.9.21-1.54,1.15-2.1,1.25-.64.12-2.39-1.18-3.75-1.35-1.27-.16-8.97-.09-9.37.5-.46,1.95,2.37,2.78,2.78,4.17.28.94.25,4.58.12,5.68-.34,2.75-4.11,4.02-3.86,5.25.53,2.63,3.69-1.21,4.07-1.21,2.58-.03-.11,3.99-.25,5.52-.43,4.58.04,10.31.52,14.88.06,10.22-.44,20.51-.02,30.74.02.58-.36,1.79.48,1.67l-.02-32.9c.47-3.71.37-7.39.51-11.02.03-.82-1.31-4.16.96-2.4v51.12c-.66.12-1.16-.17-1.36-.8-.26-.82.38-2.49-.56-2.56l-.69,6.75-3.62,1.17c2.1,3.17.41,8.31.93,12.03.16,1.12.85,1.71,1.01,2.83.18,1.29.18,8.02-.12,9.05-.78,2.61-5.59,3.85-7.58,2.01,1.11-2.21,1.33-5.73.99-8.17-.57-4.08-1.3-8.53-1.87-12.55-.09-.68.91-1.07.81-1.73-.07-.47-1.01-.92-.9-1.97.17-1.69,1.71-4.59,3.86-3.64v4.8s1.92,0,1.92,0c.37-1.45-.92-2.33-1.01-3.6-.09-1.34.87-2.67,1.03-4.3,1.67-16.07-1.33-35.03,0-51.41l-.99-3.58c-1.24-1.34-2.58,5.52-5.08,3.41-3.42-3.91,4.75-7.94,4.61-10.32-.05-.87-2.65-5.57-3.5-5.89-.79-.29-2.11.05-2.55-.59l-.21-3.4c.19-.19,3.65.17,4.56,0,1.11-.22,1.28-1.25,2.86-1.46,2.19-.3,9.36-.28,11.57,0,1.29.17,2.37,1.34,2.86,1.31.39-.02,1.03-.87,1.67-1.07,7.45-2.24,18.1-3.22,25.58-1.08,2.04.58,4.73,2.68,6.7,2.19.67-.17,1.74-1.34,2.05-1.34h22.08Z"/>
      <path class="cls-1" d="M563.91,418.18c-.52-.31-7.4.58-8.8.63-3.79.13-1.85.41-4.42,1.08-1.09.28-2.24.03-3.49.35-6.45,1.62-16.96,14.56-19.76,20.56-2.06,4.41-4.55,11.22-5.17,15.95-.23,1.74.33,4.11-.12,5.64-.27.89-1.57,1.33-1.75,2.11-.25,1.07-.25,15.57,0,16.73.3,1.41,1.58,1.52,1.84,2.87.4,2.09-.31,5.07-.03,7.22.08.59,1.6,4.51,1.93,5.76.96,3.69,2.21,4.13,3.03,6.59.29.87-.24,1.57-.03,2.37.18.7,1.04,1.25,1.25,2.15.29,1.22.3,5.81.12,7.13-.25,1.79-3.95,7.51-5.52,8.4-.96.55-4.25.81-5.09.24-1.61-1.1.77-3.18,1.19-4.14.32-.73.24-1.58.55-2.33.48-1.15,2.58-4.52,2.59-5.56,0-.57-2.93-5.78-3.45-7.09-9.31-23.32-7.27-63.46,14.02-80.75,7.57-6.14,22.4-8.65,31.58-6.13.83.23,1.71,0,2.51.37.95.77-.73,1.71-1.21,1.71-1.31,0-1.41-1.62-1.77-1.84Z"/>
      <path class="cls-1" d="M447.36,524.16c-.05,1.35.99,1.79,2.14,1.94,1.85.24,14.47.19,15.61-.28.65-.27,1.59-2.03,2.9-.94-.73,4.07-3.84,2.72-6.46,3.14-7.09,1.13-9.46.36-16.34.07-2.2-.09-7.85,1.75-6.97-2.73.35-1.8,2.18-.94,3.73-1.57,1.92-.78,3.74-3.65,3.92-5.69.9-10.51,1.51-23.69.53-34.52-.07-.76-.38-1.43-.49-2.16l-1.19.49-.26-1.21,1.72-.68c.39-.54.43-11.9.22-13.24-.37-2.26-2.54.85-1.92-2.64l1.92.95-.03-35.79-4.78-5.25c.23-1.58,3.27-2.62,4.6-2.57.41.01,5.25,2.79,5.49,3.07.13.15,1.78,3.21,1.82,3.4.1.49-.4,1.88-.4,2.8.24,29.44-.39,58.91.39,88.29-.1.54-4.86,5.55-6.13,5.1Z"/>
      <path class="cls-1" d="M352.22,423.47c.32.18,4.56,4.88,4.9,5.42,2.7,4.26.34,7.69,2.43,11.97l-.02,64.11h-1.93s-.72,2.87-.72,2.87c-1.59-1.93-3.77-2.16-5.22-4.37-1.22-1.85-1.42-4.39-2.5-6.14s-2.75-4.04-4.04-6.04c-9.8-15.18-19.57-32.18-27.91-47.93-.8-1.52-3.39-2.66-1.13-5.1,3.13,3.57,4.78,8.04,7.12,12.09,7.48,12.94,15.46,26.21,23.07,39.31,1.54,2.65,3.19,5.25,4.4,8.08l1.65.51.03-54.98c-2.15-6.01.72-8.79-4.09-14.16-2.77-3.1-6.98-5.19-11.03-5.76-9.08-1.26-16.36,4.62-20.67,12.03l-1.2-1.19c.74-.98,1.13-2.71,1.73-3.56,5.45-7.85,18.54-11.94,27.79-10.11.4.08,6.99,2.78,7.34,2.98ZM358.56,502.8v-51.84c0-.17-.42-2.73-1.44-2.16.84,15.79-.75,31.77-.02,47.78.1,2.22.9,4.57.5,6.94.3.02.91-.56.96-.72Z"/>
      <path class="cls-1" d="M311.42,450.35c.25.14.68,1.56,1.11,2.01,1.98,2.07,4.21,3.79,5.91,6.57.75,1.24.93,3.45,1.37,4.15.22.35,1.48.79,2.2,1.88,3.9,5.93,6.85,13.24,10.88,19.36.43.65,1.41.81,1.56,1.07.38.65.62,3.43,1.36,4.65.55.91,1.61,1.4,2.11,2.21,3.87,6.13,7.19,12.68,10.84,18.92,1.49,2.55,4.49,4.91,3.46,8.34-.13.43-2.88,3.28-3.27,3.45-2.19.95-9.46,2.13-11.75,1.68-1.04-.21-1.34-1.14-2.02-1.34-3.03-.9-5.5-.54-8.91-2.61-5.81-3.54-10.35-8.07-13.5-14.34-2.96-5.9-5.2-11.98-6.09-18.39-.64-4.58-.71-27.37.05-31.68.43-2.4,3.1-3.84,2.85-6.03.58.06,1.3-.17,1.82.11ZM308.64,458.4v30c0,.09.79.6.95,1.45.22,1.14-.15,2.37.14,3.7,1.76,8.09,9.21,20.1,16.33,24.47,1.98,1.21,10.2,4.93,12.11,5,.47.02,1.19-.68,1.93-.75,2.21-.22,4.61.73,5.5-2.17l-36.96-61.69Z"/>
      <path class="cls-1" d="M733.09,453.96c.06.14.68.19.83.46,1.07,1.88-.23,8.82,0,11.38.14,1.58,1.67,2.15,1.91,3.41s.21,5.92.04,7.22c-.23,1.75-1.59,2.08-1.84,3.44-.66,3.52.68,8.41.42,11.42-.13,1.54-1.27,1.74-1.48,2.88-.2,1.07.19,2.36.02,3.38-.67,3.94-4.88,15.01-7.45,18.47-.47.63-5.64,5.8-6.03,5.97-1.01.46-4.95.59-5.27-.5-.52-1.81,2.96-3.78,3.67-4.7,3.54-4.55,8.53-19.39,9.31-25.01.46-3.32-.44-7.67-.04-11.08,1.64-14.11-.46-38.84-10.35-50.1-.81-.93-4.65-3.1-4.48-4.07,3.43-4.71,8.47-1.66,11.49,1.86,4.12,4.81,8.1,14.59,9.1,20.66.24,1.46-.35,3.75.16,4.9Z"/>
      <path class="cls-1" d="M701.7,425.34l1.53,4.95v87.42c-.96,2.91-3.34,4.68-6.52,4.57-3.35-.12-2.02-1.03-3.3-2.47-.78-.88-2.76-1.14-3.17-2.13-.35-.87.55-.87,1.12-.64,1.94.78,3.15,5.19,4.66-.29v-85.01c.36-1.89-3.19-4.75-1.45-6.2,2.76-2.29,4.2-.06,7.13-.19Z"/>
      <path class="cls-1" d="M620.16,524.16c-3.35-.18-6.7-.79-8.16-4.32,2.17-.02,4.05,2.35,5.78,3.1.82.35,2.17.14,2.37.28.16.11-.07.72.01.94,9.1.48,14.69-2,20.37-9.15.34-.42,2.51-3.45,2.57-3.67,1.02-3.33-2.88-6.69-4.41-9.32-6.25-10.73-12.15-21.54-18.44-32.44-3.42-5.93-13.37-20.26-14.04-26.27-.21-1.88.15-8.62,2.62-5.02,1.86,2.7,2.51,2.28,3.85,3.83.74.85,1.35,3.19,2.01,4.23,4.9,7.77,9.03,15.77,13.92,23.52,3.1,4.9,5.74,9.9,8.64,14.88,3.73,6.41,8.22,12.94,11.65,19.55,3.85,7.42-6.09,17.9-12.71,19.85-1.28.38-2.28-.13-3.17.1-1.02.27-1.76,1.56-3.04,1.8s-6.9.24-8.12.01c-1.46-.28-1.29-.89-1.69-1.91Z"/>
      <path class="cls-1" d="M388.25,453.19c.31.35-.07,3.02.1,3.99.27,1.51,1.86,3.9,2.19,5.06.26.9-.27,1.58-.17,2.11.18.9,2.02,1.67,2.17,2.51.11.65-.53,1.58-.3,2.72.45,2.24,2.49,7.05,3.26,9.74,2.12,7.5,4.88,15.39,6.89,22.87,1.1,4.09,2.14,8.41,3.32,12.52.27.93,1.62,1.23,1.83,2.52.25,1.52-1.08,6.35-2.75,6.83-1.96.56-6.31-.29-8.08-1.31-.44-.25-6.96-6.77-7.17-7.24-.73-1.63-.81-1.78-1.57-3.2-.53-.99-3.1-5.81-2.51-6.38l1.4.03c1.6,5.12,4.9,10.79,9.15,14.14.79.62,4.02,3.07,4.34,1.42-1.63-4.79-2.66-9.78-4.08-14.63-3.58-12.28-7.71-24.51-11.61-36.87-.77-2.45-.73-8.02-3.99-7.29.08-1.17-.19-2.42.02-3.58.32-1.77,1.61-5.14,1.89-6.35.36-1.53-.39-3.73.5-5.43,2.96-.35,1.89,3.23,3.11,4.8.77.99,1.92.83,2.09,1.02Z"/>
      <path class="cls-1" d="M653.4,495.7c-.14-1.81-2.87-3.28-2.95-4.87-.05-1.1.72-3.11.72-4.43.03-9.48,1.08-23.96-1.58-32.72-3.85-12.71-14.16-28.21-28.71-29.41-1.36-.11-4.61,1.44-4.56-.91,2.51.97,4.05-1.63,5.53-1.91,1-.19,5.22-.19,6.22,0,1.32.25,1.59,1.55,2.5,1.82,2.82.81,5.18.32,8.25,2.31,9.04,5.87,10.93,11.36,15.71,20.29,1.98,3.71,2.94,8.24,3.58,12.75,1.27,9.01-1.02,20.95,0,30.29l-3.16,6.93-1.54-.13Z"/>
      <path class="cls-1" d="M584.02,491.86c-.41.47-1.39.45-1.69,1.42-.58,1.89.87,4.54-1.29,5.9-2.89-5.49-4.34-12.71-3.61-18.97,1.68-14.45-.53-36.13-9.8-48.25-.69-.9-3.31-3.79-4.13-4.51-1.05-.92-5.97-3.37-6.15-3.68-.45-.79.4-2,1.24-2.25.27-.08,5.15-.1,5.54-.02,2.03.39,7.75,4.41,9.26,6.14,6.32,7.28,9.51,18.86,10.8,28.08.44,3.13-.57,7.51,0,10.56.26,1.41,1.67,2.04,1.92,3.84.16,1.16.18,5.16-.03,6.25-.26,1.35-1.64,1.55-1.9,2.9-.63,3.32.5,8.21.32,11.46-.02.43-.19.78-.47,1.11Z"/>
      <path class="cls-1" d="M435.16,490.86c-.91,2.81-.97,6.35-1.75,9.51-.6,2.43-5.29,12.89-6.7,14.9-.53.75-7.19,7.45-7.68,7.68-1.28.58-2.73.06-4.05.27-.94.15-1.58,1.25-2.89.94-.91-.22-.54-.65-.27-1.21,1.02-2.07,3.68-3.4,5.29-5.28,9.69-11.34,12.36-31.3,12.35-45.48,0-1.7-1.74-4.55-1.7-4.81.08-.47.86-.95.93-2.01.06-.94-.59-1.92-.45-2.79.26-1.63,2.76-6.04,3.25-8.28.32-1.46-.83-4.09,1.72-3.11.41,1.82.77,4.14,1.31,5.89.27.89,1.22,1.42,1.3,2.55.06.84-.48,1.84-.49,2.84-.07,6.09,1.21,24.11-.18,28.4Z"/>
      <path class="cls-1" d="M552,422.4c.08,2.91,2.05,3.52,1.33,6.85-.1.46-1.01,3.96-1.09,4.16-.28.66-1.45,1.19-1.59,2.28-.12.89.57,1.73.33,2.68-.16.64-1.19,1.18-1.49,1.91-1.38,3.35-1.28,7.29-2.39,10.57-.31.91-1.66,1.52-1.69,2.02-.03.45.94,1.15.77,2.3s-1.5,1.77-1.75,2.61c-.91,3.1-1.04,7.29-2.13,10.35-.3.84-1.43,1.44-1.6,2.23s.9,1.45.68,2.56c-.15.72-2.87,4.91-3.19,5.97-.35,1.16-.71,7.07-1.12,7.76-.14.23-1.65.3-2.29,1.31-1.17,1.86-.42,6.56-3.4,6.43.63-2.03-.77-3.42-.99-5.01-.84-6.06,2.23-14.3,3.83-20.22,2.94-10.85,6.22-22.21,9.28-33.44,1.07-3.92,3.6-7.28,2.82-11.58l.72-.72,4.97-1.03ZM547.2,444.48c-1.16-.2-1.5,1.08-1.92,1.91,1.5.22,2.13-.46,1.92-1.91ZM545.28,449.28h-.95v1.44h.95v-1.44ZM544.32,453.12h-.95v1.92h.95v-1.92ZM539.52,472.8c0-1.76-1.43-1.76-1.44,0h1.44Z"/>
      <path class="cls-1" d="M204.33,449.15c-.06.12-.72.11-.8.46-.21.89.27,3.05-.08,3.45-.38.43-3,.56-3.1,2.98l-28.4-.13c-.7-1.63-2.16-2.38-3.07-3.89-2.64-4.4-2.95-17.84-2.32-23.14.29-2.49,3.24-4.68,5.28-5.81,3.3.72,7.22-.17,10.36.27,2.73.38,5.44.58,8.16.96,3.12.43,12.42,4.13,14.37,6.75.2.26,2.58,4.76,2.64,5.04.7,3.56-1.4,3.43-1.82,4.88-.47,1.67-.71,7.08-1.21,8.18ZM172.19,425.39c-1.86.38-3.47,2.03-3.73,3.95-.57,4.24-.14,15.14,1.08,19.12.2.66,1.05.98,1.25,1.63.55,1.84-.78,3.62,2.23,4.01,2.18.28,21.47.42,22.38-.23,1.97-5.19,2.97-10.58,4.31-15.87.38-3.77-4.93-7.57-8.11-8.72-5.46-1.96-11.52-2.96-17.14-4-.77-.14-1.5-.06-2.26.1Z"/>
      <path class="cls-1" d="M543.36,487.2v-1.92c4.07.11,8.18-.15,12.26-.02,1.6.05,3.38,1.26,4.54-.23-1.12-1.43-.76-2.66-1.09-4.18-1.5-6.88-3.89-14.36-5.65-20.75-.85-3.08-3.72-9.65-3.08-12.23.31-1.22,1.61-5.25,2.16-6.49,1.72-3.89,2.48,3.29,3.13,4.51.54,1,2.21,1.77,2.51,2.77.39,1.31-.18,2.92.11,4.13.04.18,1,2.78,1.19,3.21.26.6,1.43,1.02,1.61,1.77s-.55,1.8-.43,2.77,1.07,1.27,1.34,2.06c1.16,3.37,1.36,7.56,2.23,10.69.29,1.05,2.06,2.15,2.09,2.62l-.81,2.34c2.28,1.13,2.36,3.89,1.77,6.19-.13.5-1.78,2.76-2.04,2.76h-21.84Z"/>
      <path class="cls-1" d="M169.43,479.04c.7,1.02,1.32,6.37,1.51,6.66.15.23,1.25.19,1.88.89,1.73,1.91,1.38,5.37,1.91,7.55.71,2.89,1.52,4.81,2.01,7.65.16.95,1.68,1.01,1.82,1.59.25,1.03-.22,2.52.02,3.72.32,1.64,1.47,5.3,1.99,7.13.26.93,1.58,1.21,1.82,2.52.44,2.37-.85,6.92-3.63,7.4-1,.18-4.55-.71-5.48-1.19-.74-.37-.91-1.44-1.45-1.91-1.18-1.03-4.09-2.82-4.33-4.35-.2-1.27.59-2.38.5-3.33s-1.26-1.26-1.47-2.86c-.56-4.11-.48-17.42.01-21.64.14-1.19.85-1.97.95-2.89.17-1.5-.41-6.07.48-6.72l1.46-.21ZM168.48,501.12v11.28c0,.07.73.53.86,1.06.23,1,.01,1.89.37,2.99.31.95,3.27,5.03,4.29,4.82l.78-2.17c-1.31-6.07-4.21-11.88-4.86-17.99h-1.44Z"/>
      <path class="cls-1" d="M504,502.08c-2.84-1.45-1.93-4.31-2.42-6.45-3.73-16.12-6.15-28.46-3.22-45.51.71-4.14,2.35-8.76,3.16-12.72.21-1.04-.29-1.97-.08-2.91.39-1.73,1.74-2.22,2.08-.32.72,4.06-.32,10.6-.26,14.9.36,1.11,1.08,1.53,1.25,2.83,1.18,9.04-.08,23.98-1.01,33.12-.58,5.64,1.06,11.41.5,17.07Z"/>
      <path class="cls-1" d="M423.36,459.36c-.69,2.08.67,3.63.93,5.06.23,1.26-1.53,10.51-2.12,11.75-.34.71-1.63.77-1.73,1.27-.17.88.67,2.01.45,3.17-.18.95-1.8,4.11-2.2,5.52-.66,2.32-.74,6.06-1.17,7.91-.25,1.05-2.14,3.87-2.36,5.36-.46,1.01-2.18.58-2.63,1.21-.69.95.61,4.1-1.88,4.36.36-1.93-2.65-5.58-2.56-6.82s.98-2.22,1.22-3.16c1.7-6.63,3.62-13.3,5.12-19.93l4.09-12.48c-.19-.42-.51-.86-.92-1.05-1.27-.61-13.62-.33-16.1-.26-1.32.04-3.29,1.31-3.58-.69.07-.29,1.9-1.21,2.16-1.21h23.28ZM420.48,474.24h-.95v1.44h.95v-1.44ZM415.68,493.92c.18-2.4-1.62-2.4-1.44,0h1.44ZM413.28,497.76c1.76,0,1.76-1.43,0-1.44v1.44Z"/>
      <path class="cls-1" d="M466.69,463.08c.41.32,1.42.02,1.74.89.37,1.03-.13,2.95.08,4.24.12.77.82,1.32.96,2.4.18,1.32-.28,2.98-.01,4.25.05.25,1.7,1.13,1.83,2.11.08.61-.8,1.12-.88,1.85-.1.86.59,2.09.51,3.33-.09,1.5-1.98,7.58-2.41,9.63-.21.99.14,2.06-.06,3.05-1.19.65-1.52,0-2.59-.44-1.89,2.09-1.31,4.73-1.72,6.94-.16.88-.76,1.57-.91,2.45-.4,2.27-.16,5.03-1.22,7.41-.8-.55-.69-1.31-.75-2.13-.48-6.43.05-13.05.96-19.25,1.05-7.12,1.4-13.61-.96-20.59l.03-24.26c2.74.22,1.6,2.92,1.94,4.53.36,1.72,2.91,13.15,3.46,13.59Z"/>
      <path class="cls-1" d="M487.2,493.92h-1.92c-.18-.17.12-4.14,0-5.05-.09-.7-.37-1.49-.96-.71.63,2.23-.68,3.72-.99,5.49-.37,2.06.76,4.53-1.89,6.03-.07-.84.17-1.81-.03-2.62-.4-1.66-1.74-5.32-1.9-6.77-.09-.86,2.64-8.58,2.91-10.5,1.1-7.96-2.31-12.97-2.92-19.69-.5-5.53,1.05-10.42,1.94-15.62l1.84.8c-1.09,4.37,3.1,8.16,3.78,11.58,2.05,10.37,2.67,19.99,1.07,30.56-.11.72-.81,1.25-.91,1.97-.21,1.45.09,3.06-.03,4.54Z"/>
      <path class="cls-1" d="M763.68,492.96l2.14-2.92,25.48.02c2.07.1,4.74,3.58,5.23,5.34.41,1.49.03,2.82.37,3.95.67,2.23.81.39.85,3.91.05,4.8-.34,9.7.51,14.41l-.45.99c-2.14,1.63-3.15,4.28-6,4.57-1.81.18-8.72.47-9.38-1.24-.2-1.08.47-.66,1.19-.71,2.74-.19,5.34.86,6.91-2.22s-.03-11.45.52-15.27c-1.6-3.41-1.83-7.89-4.06-10.82h-23.28Z"/>
      <path class="cls-1" d="M796.8,467.04l-1.46-.21-.37-.59c-.3-1.82-.66-4.3-1.17-6.03-.95-3.22-2.5-5.81-2.77-9.23-.54-6.87,1.29-17.7-3.63-23.25-1.26-1.42-4.69-2.56-4.54-4.12.24-2.53,2.72-.43,3.65-.27,1.67.3,3.97-.42,5.49.27.41.19,4.59,4.49,4.71,4.89.42,1.42-.18,3.27.1,4.69.41,2.07.89.71.93,4.31.08,7.38.04,12.98-.96,20.16-.2,1.43.43,9.13.02,9.38Z"/>
      <path class="cls-1" d="M515.52,424.32l2.87-3.6-1.73-1.06c-3.93.51-8,.43-11.96.36-2.02-.03-3.86-1.37-5.29,1.42-.54,1.05,1.13,1.74,1.49,2.85,1.11,3.38-1.37,3.27-1.7,5.08-.48,2.63-.46,7.32-.98,9.5-.09.39-.87.13-.99,1.02-.28,2.21,1.05,7.87-2.83,5.07-1.86,2.5.29,6.45-2.88,8.16-.1-1.16.17-2.45-.03-3.57-.26-1.46-2.32-7.22-2.29-7.62.07-.78,1.84-3.7,2.21-4.99.69-2.41.59-6.27,1.08-8.44.09-.38.86-.13.99-1.02.57-4.13-3-3.92-1.52-7.28.91-1.15,3.1-.47,4.49-.78s2.46-1.16,3.94-1.34c2.9-.35,15.16-.47,17.76.02.81.16,3.18,2.24,3.06,3.02-.33,2.14-3.87,2.71-5.69,3.21ZM496.8,436.32h-1.44s0,2.39,0,2.39h.95s.48-2.39.48-2.39ZM495.36,444.48l.33-3.62-1.28-.7c.35,1.1-.93,4.66.96,4.32Z"/>
      <path class="cls-1" d="M483.43,422.46c-.3.32.08,2.62-.09,3.52-.38,1.96-.61,3.79-.96,5.76-.23,1.26-1.65,2.16-1.81,3.01-.14.76.49,1.5.32,2.2-.13.57-1.07.96-1.28,1.63-.39,1.25.13,2.89-.11,4.2-.19,1.03-1.19,1.66-1.35,2.53-.3,1.64,1.24,3.37-1.27,4.92-1.51-1.18,1.13-3.7-1.68-3.83.51,1.51-.74,2.54-.94,3.62-.41,2.17.16,3.23-.99,5.73-.23.49.39.96-.95.73-.05-.67.16-1.5-.03-2.13-.31-1.07-1.97-5.61-1.91-6.22.08-.92,1.7-3.71,1.91-4.87,1-5.48,1.73-10.77,2.99-16.21.41-1.79.65-6.61,2.31-7.29l1.33.36c1.34,1.47-.42,4.92,1.8,6.12,1.01.21.68-.4.83-1.07.31-1.36.57-6.9,2.47-6.58.54.09,1.17,1.09,1.26,1.67.4,2.59-1.46,1.78-1.86,2.2Z"/>
      <path class="cls-1" d="M481.54,524.06c.14.26,1.57.63,1.81,1.3-5.07,5.61-2.98-4.55-5.03-4.55-2.19,1.71-.5,4.84-2.22,7.12-3.87.49-2.43-2.7-2.84-4.95-.57-3.14-1.31-6.39-1.93-9.59-.24-1.27-2.87-6.82-2.86-7.22,0-.61.84-1.21.95-1.95.36-2.39.45-5.8,1-8.12.14-.58,1.42-4.05,1.66-4.1,1.69-.36,1.1,3.78,1.33,4.9s1.94,4.9,2.52,6.6c.31.9,2.59,6.51,2.63,6.98.09.95-.71,2.07-.5,3.33.17,1.01,1.15,1.34,1.36,2.04.34,1.14-.15,2.5.19,3.65.25.86,1.48,1.25,1.73,2.11.23.79-.12,1.88.19,2.44Z"/>
      <path class="cls-1" d="M193.44,478.08c-.56,2.29,1.68,3.33,1.44,5.48-.13,1.18-1.12,1.75-1.33,2.55-.31,1.21.13,2.53-.2,3.63-.2.66-1.13,1.04-1.24,1.59-.15.74.69,1.87.29,3.21-.24.8-1.29,1.15-1.58,1.8-.58,1.29-1.18,3.85-1.22,5.26l-1.91-.48c-.16.16-.82,5.03-1.92,3.84.51-2.3-2.13-2.84-2.64-3.85-1.36-2.68-.84-4.71-1.28-6.84-.65-3.18-2.35-4.41-2.81-8.74-.11-1.01-1.11-1.28-1.34-2.03-.96-3.02,1.77-5.4,4.52-5.89l11.22.46ZM187.44,480c-2.4.05-4.8,0-7.2,0-1.83,0,.12,3.63.22,4.11.72,3.63,1.24,6.42,2.55,9.93.22.59.62.92,1.08,1.31l4.49-14.71-.65-1.06c-.18,0-.35.42-.48.43ZM190.56,492h-.95s0,1.91,0,1.91h.71s.72-.72.72-.72l-.47-1.2ZM189.6,496.32h-.95v1.44h.95v-1.44Z"/>
      <path class="cls-1" d="M773.28,467.04l5.44.02c1.63-1.66-.24-3.96-.61-5.57-.17-.73.12-1.63-.05-2.35-1.89-7.6-4.37-8.85-.77-17.15.17-.4.74-2.17,1.51-1.84,1.53.68.99,3.84,1.47,5.26.39,1.16,2.27,2.37,2.53,3.23.34,1.15-.16,2.52.19,3.65.97,3.19,1.99,4.76,2.88,8.64.45,1.94,2.82,2.72.41,5.4-2.28,2.53-6.27,1.55-9.4,1.64-1.46.04-3.51,1.4-3.58-.93Z"/>
      <path class="cls-1" d="M791.9,485.66c-.26.45-2.73,1.46-3.49,1.55-2.04.25-19.12.32-19.94-.24l-.47-1.69,16.49.5c1.63-.22-1.07-5.81-1.38-6.74-.5-1.48-.31-3.43-1.51-4.84-.8-.58-8.01.18-10.01.03-.72-.05-1.39.37-1.19-.71,1.16-.82,2.62-1.99,4.05-2.19,2.16-.3,12.11-.18,13.68.76.17.1,2.76,2.74,2.82,2.94.32.95-.11,2.24.1,3.26.17.81.81,1.32.96,2.4.1.72.09,4.59-.13,4.97Z"/>
      <path class="cls-1" d="M198.72,459.36c-.71,2.9,1.63,5.47.94,8.3-.08.31-.68.29-.89.73-.87,1.87-1.18,3.04-3.18,4.41-3.35,2.3-12.24,2.36-16.34,1.95-1.54-.15-3.26-1.3-4.24-2.48-.92-1.09-2.12-5.35-2.25-6.88-.18-2.13.53-4.03,1-6.03h24.96ZM192.24,461.28h-16.8c-1.87,1.8-.25,4.04.11,5.65.32,1.4.61,4.65,1.68,5.76,1.21,1.25,11.71.74,13.09-.85s1.52-6.93,3.57-8.46c.12-.49-1.38-2.02-1.65-2.1Z"/>
      <path class="cls-1" d="M363.36,452.16l.24,58.08c-1.43-.46-2.06-2.8-2.19-4.05-1.67-16.42,1.33-35.66,0-52.38-.03-1.37.6-1.87,1.94-1.65Z"/>
      <path class="cls-1" d="M656.16,528.96l-1.85-.08-3.91-7.39-2.89.03c.33-1.72,5.56-5.4,6.71-4.82.65,1.44,2.93,1.96,3.58,2.69.41.46,1.7,3.06,2.27,3.97,1.09,1.75,2.25,1.52,1.84,4.4,0,.41-1.04.32-1.2.24-.45-.21-2.86-4.81-3.46-5.64-.33-.46-.02-.84-1.1-.6v7.2Z"/>
      <path class="cls-1" d="M208.86,445.99l1.4.14c.75.57.51,3.28.4,4.3-.34,3.18-1.89,10.18-3.59,12.73-.69,1.03-2.46,2.95-3.79,2.92-.71-.18-.66-.77-.47-1.41.72-2.45,2.11-4.83,2.86-7.24.96-3.07,1.44-6.47,2.29-9.71.15-.56.74-1.11.89-1.73Z"/>
      <path class="cls-1" d="M760.8,480.48c.47,1.59-.76,2.84-.93,4.1-.21,1.54.15,3.1-.14,4.66-.34,1.82-2.2,3.92-2.64,5.52-.47,1.73.17,4.85-2.28,5.87-2-2.14-.1-5.01.21-6.98.64-4.19.53-7.32,3.2-11.2.27-.4,2.09-2.56,2.58-1.97Z"/>
      <path class="cls-1" d="M780.96,520.32l-.21,1.46-.58.38c-1.49-.02-3.75.4-5.11-.02-.65-.2-.98-1.05-1.63-1.25-1.89-.58-4.45-.6-6.56-1.6-.69-.33-7.02-4.82-6.06-5.7,2.28.49,4.28,2.96,6.37,3.94,1.32.62,7,2.54,8.29,2.75,1.7.27,3.74-.13,5.49.03Z"/>
      <path class="cls-1" d="M654.08,425.44c.58.61,3.11,5.02,1.36,5.11-.84.04-4.32-3.98-5.28-4.79-1.03-.87-3.05-.68-2.64-2.88.9-.88,5.72,1.67,6.56,2.56Z"/>
      <path class="cls-1" d="M363.84,515.04c-1.08-1.09,2.22-4.17,3.37-4.56l-1.45-2.87c.39-.92,2.7-.99,3.39-.51,2.43,1.7-3.86,9.41-5.31,7.95Z"/>
      <path class="cls-1" d="M432,427.68c-3.09-.06-4.56-3.23-6.24-5.27,3.23-.26,6.29,1.85,6.24,5.27Z"/>
      <path class="cls-1" d="M539.04,524.16c-2.98-.05-6.22-2.59-5.76-5.75l1.95.69,3.81,5.07Z"/>
      <path class="cls-1" d="M735.26,434.52c.98.57,3.15,5.53,3.47,6.84.11.47,1,1.18-.26,1.68-1.17.46-.45-1.2-.83-1.81-.13-.21-.85-.27-1.04-.61-.4-.72-2.93-5.98-2.68-6.21.45.02.94-.12,1.34.11Z"/>
      <path class="cls-1" d="M575.94,423.42l-.17,1.37-8.4-5.04c2.71-2.22,5.84,3.22,8.57,3.66Z"/>
      <path class="cls-1" d="M392.64,448.32l-.96-7.2,1.69.47c-.38,2.41,3.25,6.78-.73,6.73Z"/>
      <path class="cls-1" d="M380.64,488.16c-.1-3.05-.08-6.05-.26-9.12-.05-.83-.59-1.22.49-1.91,1.11.02.7,5.41.72,6.46.04,1.71,1.5,3.48-.96,4.57Z"/>
      <path class="cls-1" d="M381.6,495.36c.19-.47-.58-4.45.71-3.83,1.47,1.31,2.07,4.13-.71,3.83Z"/>
      <path class="cls-1" d="M735.6,509.29c1.05-.09.36,1.14.16,1.59-.49,1.13-1.29,2.25-2.08,3.19l.52-3.31c.2-.33,1.22-1.46,1.4-1.47Z"/>
      <polygon class="cls-1" points="384.48 500.64 382.52 499.85 383.76 497.29 384.48 500.64"/>
      <path class="cls-1" d="M403.2,475.2v2.64c-2.48,1.1-2.85-3.09,0-2.64Z"/>
      <path class="cls-1" d="M810.72,424.32c.45.41-2.28,3.91-2.87,2.15-.48-1.43,1.84-2.17,2.87-2.15Z"/>
      <path class="cls-1" d="M392.1,439.14l-1.37.54c-1.76-5.8,2.64-2.09,1.37-.54Z"/>
      <path class="cls-1" d="M740.16,448.32c2.42-.2,2.45,1.63.72,2.87l-.72-2.87Z"/>
      <path class="cls-1" d="M729.87,517.71c.17-.14,1.76-2.2,1.64-.52l-3.12,3.12c-1.49-.94.73-1.98,1.47-2.6Z"/>
      <path class="cls-1" d="M400.32,466.08l-.24,3.84c-1.54-.76-1.73-3.91.24-3.84Z"/>
      <path class="cls-1" d="M405.6,486.72l-1.47-.29.04-2.58c1.72-.12,1.5,1.74,1.43,2.88Z"/>
      <polygon class="cls-1" points="404.64 479.52 404.41 481.45 402.72 481.92 402.95 479.99 404.64 479.52"/>
      <polygon class="cls-1" points="807.84 504 807.13 506.88 805.96 505.27 807.84 504"/>
      <path class="cls-1" d="M813.12,520.32c.81-.85,3.33,3,1.68,2.87-.4-.03-2.12-2-1.68-2.87Z"/>
      <path class="cls-1" d="M394.8,449.29c.83.55.82,1.22.72,2.15l-.72.71-1.16-1.26,1.16-1.6Z"/>
      <path class="cls-1" d="M400.32,472.8c-.06-1-.18-1.8.72-2.39l1.2,1.66c-.51.74-1.03.84-1.92.72Z"/>
      <path class="cls-1" d="M642.24,476.16h-1.92s0-1.92,0-1.92c1.45-.22,2.13.42,1.92,1.92Z"/>
      <path class="cls-1" d="M630.24,455.52c-.94.29-2.58-.75-2.4-1.67.35-1.71,2.92,1.14,2.4,1.67Z"/>
      <path class="cls-1" d="M414.24,514.08v1.92c-2.53.23-2.55-2.14,0-1.92Z"/>
      <polygon class="cls-1" points="439.2 438.72 439.2 441.12 438.49 441.12 437.29 439.92 438.49 438.72 439.2 438.72"/>
      <path class="cls-1" d="M584.16,432.96c-1.13.06-2.97-.45-2.88-1.91,1.34-.22,2.31.84,2.88,1.91Z"/>
      <path class="cls-1" d="M416.64,505.44v2.4s-.71,0-.71,0c-.84-.58-.8-1.44-.72-2.39h1.44Z"/>
      <path class="cls-1" d="M512.64,427.2v-1.92c2.53-.23,2.55,2.14,0,1.92Z"/>
      <path class="cls-1" d="M624.48,446.88h.71s1.21,1.2,1.21,1.2l-.72,1.18c-.82-.66-1.39-1.27-1.2-2.39Z"/>
      <path class="cls-1" d="M739.2,446.88v-2.4c1.97-.04,1.97,2.44,0,2.4Z"/>
      <path class="cls-1" d="M617.28,433.92c-.35.35-2.14-.18-1.92-1.19.39-1.77,2.84.26,1.92,1.19Z"/>
      <polygon class="cls-1" points="621.12 440.16 619.67 439.93 619.2 438.24 621.12 439.45 621.12 440.16"/>
      <polygon class="cls-1" points="733.92 432.96 733.21 432.95 731.53 431.76 732.71 431.04 733.92 432.25 733.92 432.96"/>
      <polygon class="cls-1" points="586.08 436.32 584.63 436.09 584.16 434.4 586.08 435.61 586.08 436.32"/>
      <path class="cls-1" d="M418.8,496.81c.91,0,.91,2.38,0,2.38s-.91-2.38,0-2.38Z"/>
      <path class="cls-1" d="M807.84,508.32c.87-.69,2.19,1.59.71,1.91-1.26.28-1.11-1.59-.71-1.91Z"/>
      <path class="cls-1" d="M385.44,502.08v1.92s-1.44,0-1.44,0c-.11-.88-.03-1.41.72-1.91h.71Z"/>
      <path class="cls-1" d="M633.12,459.36l-.23,1.91c-.9-.46-1.42-.89-1.68-1.91h1.92Z"/>
      <path class="cls-1" d="M408,494.88h-1.44s0-1.92,0-1.92h.71c.75.51.84,1.03.72,1.92Z"/>
      <path class="cls-1" d="M440.64,425.28c.61.66-.85,2.55-1.43,1.92-.61-.66.85-2.55,1.43-1.92Z"/>
      <path class="cls-1" d="M539.52,515.04h-.71c-2.16-2.31.88-2.9.71,0Z"/>
      <path class="cls-1" d="M414.24,510.24c.85-.91,2.15,1.92.72,1.91-.49,0-1.01-1.59-.72-1.91Z"/>
      <path class="cls-1" d="M690.72,430.08l-.49,1.92h-.95c-.18-1.15.23-2.03,1.44-1.92Z"/>
      <path class="cls-1" d="M636.96,467.04c-.32.3-1.9-.22-1.91-.72-.01-1.43,2.82-.13,1.91.72Z"/>
      <path class="cls-1" d="M615.36,431.04c-.85.91-2.15-1.92-.72-1.91.49,0,1.01,1.59.72,1.91Z"/>
      <rect class="cls-1" x="420.48" y="488.16" width=".95" height="1.92"/>
      <path class="cls-1" d="M441.6,445.44v1.44s-1.44,0-1.44,0c-.16-.87.53-1.59,1.44-1.44Z"/>
      <polygon class="cls-1" points="639.6 471.37 640.32 472.09 639.6 473.27 638.88 472.55 639.6 471.37"/>
      <path class="cls-1" d="M406.56,490.08h-.95s0-1.92,0-1.92c.95.26,1.08,1.02.95,1.92Z"/>
      <path class="cls-1" d="M645.6,481.92h-1.44c0-1.76,1.43-1.76,1.44,0Z"/>
      <path class="cls-1" d="M424.32,479.52v1.44c-1.76,0-1.76-1.43,0-1.44Z"/>
      <path class="cls-1" d="M684,506.88v-1.44c1.76,0,1.76,1.43,0,1.44Z"/>
      <path class="cls-1" d="M436.8,509.28v-1.44c1.76,0,1.76,1.43,0,1.44Z"/>
      <path class="cls-1" d="M623.04,445.92v-1.44c1.76,0,1.76,1.43,0,1.44Z"/>
      <path class="cls-1" d="M539.52,432c-.19-1.38.52-2.51,1.43-1.2l-1.43,1.2Z"/>
      <rect class="cls-1" x="626.4" y="451.2" width="1.44" height=".95"/>
      <rect class="cls-1" x="810.24" y="515.52" width=".95" height="1.44"/>
      <rect class="cls-1" x="416.64" y="502.08" width="1.44" height=".95"/>
      <rect class="cls-1" x="743.04" y="459.36" width=".95" height="1.44"/>
      <path class="cls-1" d="M589.92,522.72l-1.43-.49v-.95c.91-.15,1.6.56,1.43,1.44Z"/>
      <rect class="cls-1" x="419.52" y="493.44" width=".95" height="1.44"/>
      <path class="cls-1" d="M619.2,435.84c.73.73-1.43,2.05-1.43.72,0-.32,1.15-.99,1.43-.72Z"/>
      <rect class="cls-1" x="661.44" y="442.08" width="1.44" height=".95"/>
    </g>
  </g>
</svg>